<svg viewBox="0 0 1000 1000" xmlns="http://www.w3.org/2000/svg">
	<path fill="#ddd" d="m9024.7 4963c-63.2-30.6-160.8-105.3-220.2-166.6-134-135.9-5062.4-6718.5-5125.5-6844.9-59.4-116.8-74.7-298.7-34.5-427 15.3-51.7 26.8-95.7 24.9-97.6-1.9-3.8-38.3 1.9-80.4 11.5-193.4 46-530.4 5.7-767.8-88.1-139.8-57.4-352.3-185.7-476.7-289.1-49.8-40.2-178.1-176.2-287.2-304.4-109.1-126.4-258.5-287.2-331.2-356.2-292.9-275.7-605-338.9-1005.2-204.9-63.2 21.1-116.8 34.5-120.6 30.6-3.8-3.8 34.5-70.8 88.1-149.3 329.3-503.6 980.3-817.6 1771.1-853.9 564.8-24.9 942 97.7 1244.5 404 283.4 289.1 457.6 758.2 471 1269.4l5.7 174.2 105.3 13.4c153.2 19.2 270 74.7 369.5 178.1 49.8 51.7 725.6 1074.1 1575.7 2387.6 819.5 1263.7 1838.1 2835.6 2265.1 3492.3 425 656.7 800.3 1250.3 832.9 1319.2 103.4 220.2 91.9 478.7-23 539.9-65.1 34.6-164.7 21.2-281.5-38.2z" transform="matrix(.1 0 0 -.1 0 512)"/>
</svg>